# xmcd CD database file
#
# Track frame offsets:
#	150
#	13565
#	27048
#	38753
#	40787
#	50565
#	58453
#	71198
#	78683
#	93819
#	105212
#	121137
#	173896
#	204190
#	215853
#	231805
#	245635
#
# Disc length: 3473 seconds
#
# Revision: 1
# Processed by: cddbd v1.5.2PL0 Copyright (c) Steve Scherf et al.
# Submitted via: CDex 1.51
#
DISCID=e50d8f11
DTITLE=Billie Holiday - [CD 06-10] - God Bless The Child
DYEAR=1900
DGENRE=Jazz
TTITLE0=My Man  [1952]
TTITLE1=Tenderly  [1952]
TTITLE2=God Bless The Child  [1953]
TTITLE3=(Annoucement)  [1954]
TTITLE4=Blue Moon  [1954]
TTITLE5=All Of Me  [1954]
TTITLE6=My Man  [1954]
TTITLE7=Them There Eyes  [1954]
TTITLE8=I Cried For You  [1954]
TTITLE9=What A Little Moonlight Can Do  [1954]
TTITLE10=I Cover The Waterfront  [1954]
TTITLE11=Billie's Blues  (i.e. I Love My Man)  [1954]
TTITLE12=Lover Come Back To Me  [1954]
TTITLE13=I Cried For You  [1954]
TTITLE14=Stormy Blues  [1954]
TTITLE15=How Deep Is The Ocean ¿ (How High Is The Sky ¿  [1954]
TTITLE16=I Can't Face The Music  [1952]
EXTD=
EXTT0=
EXTT1=
EXTT2=
EXTT3=
EXTT4=
EXTT5=
EXTT6=
EXTT7=
EXTT8=
EXTT9=
EXTT10=
EXTT11=
EXTT12=
EXTT13=
EXTT14=
EXTT15=
EXTT16=
PLAYORDER=
